<svg xmlns="http://www.w3.org/2000/svg" height="24" id="S_Bug_24_N" viewBox="0 0 24 24" width="24">
  <defs>
    <style>
      .fill {
        fill: #707070;
      }

      
    </style>
  </defs>
  <rect id="Canvas" fill="#ff13dc" opacity="0" width="24" height="24" /><path class="fill" d="M17.463,4.828A6.535,6.535,0,0,0,12,2,6.535,6.535,0,0,0,6.537,4.828,7.96,7.96,0,0,0,12,7,7.96,7.96,0,0,0,17.463,4.828Z" />
  <path class="fill" d="M3.477,4.261,1.7,5.151A12.064,12.064,0,0,0,4.752,8.56,18.425,18.425,0,0,0,4.078,12H0v2H4.03A9.062,9.062,0,0,0,5.7,18.242a10.05,10.05,0,0,0-3,4.107l1.8.9a8.038,8.038,0,0,1,2.516-3.467A7.727,7.727,0,0,0,11,21.906V9A9.985,9.985,0,0,1,3.477,4.261Z" />
  <path class="fill" d="M24,14V12H19.922a18.425,18.425,0,0,0-.674-3.44A12.083,12.083,0,0,0,22.3,5.151l-1.779-.89A9.985,9.985,0,0,1,13,9V21.906a7.727,7.727,0,0,0,3.986-2.124A8.038,8.038,0,0,1,19.5,23.249l1.8-.9a10.061,10.061,0,0,0-3-4.107A9.062,9.062,0,0,0,19.97,14Z" />
  </svg>