<svg xmlns="http://www.w3.org/2000/svg" data-name="S_AdobePrimetime_24_N@1x" height="24" id="S_AdobePrimetime_24_N_1x" viewBox="0 0 24 24" width="24">
  <defs>
    <style>
	.fill {
        fill: #707070;
      }</style>
  </defs>
  <title>S_AdobePrimetime_24_N@1x</title>
  <rect id="ToDelete" fill="#ff13dc" opacity="0" width="24" height="24" /><path class="fill" d="M12,.43A11.507,11.507,0,0,0,.55,12a11.451,11.451,0,1,0,22.9,0A11.506,11.506,0,0,0,12,.43Zm0,21.86A10.291,10.291,0,0,1,12,1.71a10.291,10.291,0,0,1,0,20.58Z" />
  <path class="fill" d="M10.09,15.9a.119.119,0,0,1,.05-.09l4.59-2.27.14-.04c.07-.03.11.02.11.08v4.67c0,.06-.05.11-.1.09l-.11-.03L10.14,16A.1.1,0,0,1,10.09,15.9ZM18.9,7.59,13.51,4.3a.625.625,0,0,0-.67.02.739.739,0,0,0-.36.64l-.01,1.21L10.3,5.12a1.129,1.129,0,0,0-.44-.1c-.02,0-.04.01-.06.01H9.77c-.02,0,.02-.01,0-.01A.831.831,0,0,0,9,5.91l.02,4.53c0,.52,1.03.94,1.55.94a.625.625,0,0,0,.37-.12l4.34-2.37c.31-.17.5-.3.5-.64a.916.916,0,0,0-.45-.83L12.84,6.26l-.03-1.3a.409.409,0,0,1,.21-.34.287.287,0,0,1,.32-.01L18.73,7.9a.388.388,0,0,1,0,.69l-6.19,3.38L6.35,15.24a.741.741,0,0,0-.01,1.31l5.3,3.68a.677.677,0,0,0,.36.1.916.916,0,0,0,.43-.11.718.718,0,0,0,.36-.64l.05-1.33,1.9.71a.74.74,0,0,0,.37.1.833.833,0,0,0,.84-.81V13.58a.807.807,0,0,0-.71-.79l-.17-.02h-.04c-.03,0-.06.02-.09.02a.783.783,0,0,0-.25.07L9.81,15.19a.819.819,0,0,0-.44.71.862.862,0,0,0,.5.71l2.64,1.45-.06,1.52a.39.39,0,0,1-.19.34.508.508,0,0,1-.45,0l-5.3-3.68a.4.4,0,0,1-.2-.34.392.392,0,0,1,.21-.35l6.19-3.27,6.2-3.38a.741.741,0,0,0,.39-.65A.755.755,0,0,0,18.9,7.59Z" />
  </svg>